<svg width="16" height="16" viewBox="0 0 16 16" fill="none" xmlns="http://www.w3.org/2000/svg">
<g id="search icon">
<path id="Vector" d="M7.04604 0C3.16096 0 0 3.16096 0 7.04604C0 10.9313 3.16096 14.0921 7.04604 14.0921C10.9313 14.0921 14.0921 10.9313 14.0921 7.04604C14.0921 3.16096 10.9313 0 7.04604 0ZM7.04604 12.7913C3.87815 12.7913 1.30081 10.214 1.30081 7.04607C1.30081 3.87818 3.87815 1.30081 7.04604 1.30081C10.2139 1.30081 12.7913 3.87815 12.7913 7.04604C12.7913 10.2139 10.2139 12.7913 7.04604 12.7913Z" fill="white"/>
<path id="Vector_2" d="M15.8095 14.8897L12.0805 11.1607C11.8264 10.9066 11.4149 10.9066 11.1608 11.1607C10.9067 11.4145 10.9067 11.8265 11.1608 12.0803L14.8898 15.8093C15.0168 15.9364 15.1831 15.9999 15.3496 15.9999C15.5159 15.9999 15.6824 15.9364 15.8095 15.8093C16.0636 15.5555 16.0636 15.1435 15.8095 14.8897Z" fill="white"/>
</g>
</svg>
